<svg width="100" height="100" viewBox="0 0 100 100" fill="none" xmlns="http://www.w3.org/2000/svg">
<rect width="100" height="100" rx="24" fill="white"/>
<path d="M41.6628 60.3981C40.1307 62.4333 39.3647 63.451 38.615 64.0631C35.5341 66.5789 31.0728 66.449 28.1435 63.7583C27.4307 63.1036 26.7258 62.0441 25.3161 59.9251L14.7696 44.0726C12.7572 41.0476 14.9258 37 18.5591 37C20.0883 37 21.5153 37.7679 22.3577 39.0441L26.4257 45.2068C27.516 46.8585 28.0611 47.6843 28.5847 48.2235C31.5849 51.3128 36.4922 51.4728 39.6873 48.5855C40.2449 48.0817 40.8439 47.2915 42.042 45.711C43.164 44.231 43.725 43.4909 44.2567 43.0032C47.3158 40.1972 52.0129 40.1972 55.072 43.0032C55.6037 43.4909 56.1636 44.2294 57.2833 45.7065C58.4739 47.2771 59.0692 48.0623 59.6236 48.5642C62.8242 51.4618 67.7466 51.297 70.7463 48.192C71.2659 47.6541 71.8073 46.8308 72.8902 45.1841L76.9233 39.0515C77.7654 37.771 79.1951 37 80.7277 37C84.3606 37 86.5306 41.0454 84.5213 44.072L74.0052 59.9118C72.6 62.0285 71.8973 63.0868 71.187 63.7412C68.2572 66.4402 63.788 66.5725 60.7037 64.0514C59.9559 63.4401 59.1919 62.4252 57.664 60.3954C56.2169 58.4729 55.4933 57.5116 54.7733 56.9141C51.811 54.4557 47.5178 54.4557 44.5555 56.9141C43.8355 57.5116 43.1112 58.4738 41.6628 60.3981Z" fill="black"/>
</svg>
